<?xml version="1.0" standalone="no"?>
<!DOCTYPE svg PUBLIC "-//W3C//DTD SVG 20010904//EN"
 "http://www.w3.org/TR/2001/REC-SVG-20010904/DTD/svg10.dtd">
<svg version="1.0" xmlns="http://www.w3.org/2000/svg"
 width="736.000000pt" height="736.000000pt" viewBox="0 0 736.000000 736.000000"
 preserveAspectRatio="xMidYMid meet">

<g transform="translate(0.000000,736.000000) scale(0.100000,-0.100000)"
fill="#000000" stroke="none">
<path d="M1606 5036 c-28 -160 -40 -412 -27 -582 25 -318 90 -542 212 -724 58
-86 178 -210 238 -246 17 -10 31 -21 31 -24 0 -4 -32 -112 -70 -241 -73 -242
-120 -404 -120 -413 0 -4 132 113 294 259 l294 266 173 3 c96 2 213 11 261 19
145 25 164 13 252 -166 119 -241 257 -478 423 -730 57 -86 108 -157 113 -157
10 0 188 267 277 415 93 155 176 307 255 465 69 137 75 146 118 167 44 22 47
22 135 7 50 -8 151 -17 225 -21 529 -23 880 224 1025 722 78 271 94 672 39
982 l-6 31 -226 -153 c-578 -389 -1126 -721 -1598 -966 -169 -88 -171 -89
-243 -89 -71 0 -74 1 -244 89 -95 49 -239 127 -322 173 -147 84 -150 86 -147
117 1 18 36 190 77 383 41 193 75 357 75 365 0 8 -24 -12 -53 -44 -318 -346
-433 -472 -452 -492 l-23 -23 -173 108 c-96 60 -317 204 -491 320 l-316 211
-6 -31z m217 -317 c23 -13 267 -189 267 -194 0 -1 -7 -22 -17 -46 -26 -70 -24
-255 4 -344 25 -81 83 -175 143 -235 216 -216 575 -225 794 -20 l62 59 143
-73 c144 -75 170 -95 171 -132 0 -32 -38 -61 -141 -102 -240 -98 -379 -131
-584 -138 -194 -8 -304 13 -445 82 -80 39 -109 61 -180 133 -134 135 -214 300
-260 537 -27 136 -40 445 -20 469 15 18 34 19 63 4z m3777 -4 c18 -21 7 -331
-15 -445 -65 -342 -209 -572 -431 -687 -117 -61 -206 -83 -359 -90 -215 -9
-398 26 -642 122 -141 56 -183 84 -183 120 0 37 22 54 169 130 l145 74 62 -59
c253 -236 669 -185 863 106 28 41 60 105 72 142 38 121 36 277 -6 383 -5 12
20 35 97 91 190 139 202 145 228 113z m-1815 -1276 l61 -21 1 -67 c0 -61 23
-141 39 -141 4 0 21 17 39 37 l32 37 -4 -124 c-5 -180 -5 -180 -13 -175 -4 3
-10 -9 -14 -26 -7 -35 -80 -162 -135 -236 -46 -61 -97 -88 -137 -73 -41 16
-69 44 -124 125 -99 147 -121 215 -126 394 l-3 123 30 -41 c17 -22 35 -41 40
-41 19 0 42 76 43 142 l1 67 40 15 c87 32 150 33 230 5z"/>
</g>
</svg>
